<?xml version="1.0" encoding="utf-8"?>
<!-- Generator: Adobe Illustrator 17.0.0, SVG Export Plug-In . SVG Version: 6.00 Build 0)  -->
<!DOCTYPE svg PUBLIC "-//W3C//DTD SVG 1.1//EN" "http://www.w3.org/Graphics/SVG/1.1/DTD/svg11.dtd">
<svg version="1.1" id="mb-stern_x5F_10" xmlns="http://www.w3.org/2000/svg" xmlns:xlink="http://www.w3.org/1999/xlink" x="0px"
	 y="0px" width="184.917px" height="31px" viewBox="0 0 184.917 31" enable-background="new 0 0 184.917 31" xml:space="preserve">
<linearGradient id="outer_2_" gradientUnits="userSpaceOnUse" x1="12.1177" y1="-1052.9233" x2="32.1841" y2="-1069.729" gradientTransform="matrix(1 0 0 -1 -0.275 -1045.9501)">
	<stop  offset="0" style="stop-color:#FFFFFF"/>
	<stop  offset="0.1" style="stop-color:#E7E8E6"/>
	<stop  offset="0.1" style="stop-color:#CDD0D0"/>
	<stop  offset="0.2" style="stop-color:#B5BBBD"/>
	<stop  offset="0.2" style="stop-color:#A5ACAF"/>
	<stop  offset="0.3" style="stop-color:#9BA3A7"/>
	<stop  offset="0.3" style="stop-color:#98A0A4"/>
	<stop  offset="0.4" style="stop-color:#828A8F"/>
	<stop  offset="0.5" style="stop-color:#667075"/>
	<stop  offset="0.6" style="stop-color:#535C63"/>
	<stop  offset="0.7" style="stop-color:#475158"/>
	<stop  offset="0.8" style="stop-color:#434D54"/>
	<stop  offset="1" style="stop-color:#475157"/>
</linearGradient>
<path id="outer_1_" fill="url(#outer_2_)" d="M34.96,15.376c0,7.232-5.853,13.084-13.084,13.084S8.792,22.608,8.792,15.376
	S14.645,2.292,21.876,2.292S34.96,8.145,34.96,15.376z M21.876,3.087c-6.814,0-12.29,5.476-12.29,12.29s5.518,12.29,12.29,12.29
	c6.814,0,12.29-5.518,12.29-12.29C34.166,8.563,28.69,3.087,21.876,3.087z"/>
<linearGradient id="SVGID_1_" gradientUnits="userSpaceOnUse" x1="12.7334" y1="-1053.4091" x2="31.5438" y2="-1069.2098" gradientTransform="matrix(1 0 0 -1 -0.275 -1045.9501)">
	<stop  offset="0" style="stop-color:#0B1F2A"/>
	<stop  offset="0.2" style="stop-color:#333F47"/>
	<stop  offset="0.5" style="stop-color:#777F84"/>
	<stop  offset="0.5" style="stop-color:#81898D"/>
	<stop  offset="0.7" style="stop-color:#B3B8B8"/>
	<stop  offset="0.8" style="stop-color:#D2D5D3"/>
	<stop  offset="0.8" style="stop-color:#DEE0DD"/>
	<stop  offset="1" style="stop-color:#FBFBFB"/>
</linearGradient>
<path fill="url(#SVGID_1_)" d="M21.876,3.087c-6.814,0-12.29,5.476-12.29,12.29s5.518,12.29,12.29,12.29
	c6.814,0,12.29-5.518,12.29-12.29C34.166,8.563,28.69,3.087,21.876,3.087z M21.876,26.872c-6.354,0-11.495-5.141-11.495-11.495
	S15.522,3.882,21.876,3.882s11.495,5.141,11.495,11.495S28.23,26.872,21.876,26.872z"/>
<linearGradient id="SVGID_2_" gradientUnits="userSpaceOnUse" x1="-815.6344" y1="879.1363" x2="-806.4799" y2="853.9721" gradientTransform="matrix(-1 0 0 1 -789.1865 -851.1929)">
	<stop  offset="0" style="stop-color:#E1E3E1"/>
	<stop  offset="0.1" style="stop-color:#C1C5C4"/>
	<stop  offset="0.3" style="stop-color:#9BA1A2"/>
	<stop  offset="0.5" style="stop-color:#7D8487"/>
	<stop  offset="0.7" style="stop-color:#687074;stop-opacity:0"/>
	<stop  offset="0.8" style="stop-color:#5B6469;stop-opacity:0"/>
	<stop  offset="1" style="stop-color:#576065;stop-opacity:0"/>
</linearGradient>
<path opacity="0.4" fill="url(#SVGID_2_)" enable-background="new    " d="M21.876,28.46c7.232,0,13.084-5.853,13.084-13.084
	S29.107,2.292,21.876,2.292S8.792,8.145,8.792,15.376S14.645,28.46,21.876,28.46L21.876,28.46z M21.876,2
	c7.357,0,13.376,6.019,13.376,13.376s-6.019,13.377-13.376,13.377S8.5,22.733,8.5,15.376S14.519,2,21.876,2L21.876,2z"/>
<path fill="#FFFFFF" d="M9.42,15.419c0-6.855,5.559-12.499,12.457-12.499l0,0c6.897,0,12.457,5.601,12.457,12.499l0,0
	c0,6.855-5.559,12.415-12.457,12.415l0,0C14.979,27.833,9.42,22.273,9.42,15.419L9.42,15.419z M13.307,6.807
	c-2.215,2.215-3.595,5.267-3.595,8.611l0,0c0,3.344,1.38,6.395,3.553,8.569l0,0c2.215,2.174,5.267,3.553,8.611,3.553l0,0
	c3.344,0,6.395-1.338,8.569-3.553l0,0c2.215-2.174,3.553-5.225,3.553-8.569l0,0c0-3.344-1.38-6.395-3.553-8.611l0,0
	c-2.174-2.215-5.225-3.595-8.569-3.595l0,0C18.532,3.213,15.48,4.592,13.307,6.807L13.307,6.807z"/>
<linearGradient id="SVGID_3_" gradientUnits="userSpaceOnUse" x1="16.3829" y1="-1051.3373" x2="27.919" y2="-1071.3167" gradientTransform="matrix(1 0 0 -1 -0.275 -1045.9501)">
	<stop  offset="0" style="stop-color:#E1E3E1"/>
	<stop  offset="0.1" style="stop-color:#C1C5C4"/>
	<stop  offset="0.3" style="stop-color:#9BA1A2"/>
	<stop  offset="0.5" style="stop-color:#7D8487"/>
	<stop  offset="0.7" style="stop-color:#687074;stop-opacity:0"/>
	<stop  offset="0.8" style="stop-color:#5B6469;stop-opacity:0"/>
	<stop  offset="1" style="stop-color:#576065;stop-opacity:0"/>
</linearGradient>
<path opacity="0.4" fill="url(#SVGID_3_)" enable-background="new    " d="M21.876,26.914c-3.093,0-5.977-1.212-8.151-3.386
	s-3.386-5.058-3.386-8.151s1.212-5.977,3.386-8.151s5.058-3.386,8.151-3.386s5.977,1.212,8.151,3.386s3.386,5.058,3.386,8.151
	s-1.212,5.977-3.386,8.151C27.853,25.701,24.97,26.914,21.876,26.914L21.876,26.914z M21.876,26.579c2.967,0,5.811-1.17,7.9-3.261
	c2.132-2.132,3.261-4.933,3.261-7.9s-1.17-5.811-3.261-7.9c-2.132-2.132-4.933-3.261-7.9-3.261s-5.811,1.17-7.9,3.261
	c-2.132,2.048-3.302,4.891-3.302,7.859s1.17,5.811,3.261,7.9C16.066,25.408,18.908,26.579,21.876,26.579L21.876,26.579z"/>
<path fill="#FFFFFF" d="M22.044,15.126"/>
<path fill="#FFFFFF" d="M32.034,20.811c-0.209-0.167-8.277-6.563-8.277-6.563l-1.88-10.743c-0.126,0.042-0.292,0.167-0.376,0.334
	l-1.338,10.45l-8.318,6.395c0,0-0.167,0.209-0.251,0.334c-0.042,0.084-0.042,0.209-0.042,0.334l0,0l10.283-4.222l10.283,4.222l0,0
	C32.201,21.145,32.117,20.936,32.034,20.811z"/>
<path fill="#565F64" d="M21.96,15.711l-0.084,1.923l9.447,3.804c0.334,0.167,0.586,0.084,0.836-0.084l-10.074-5.685
	C22.044,15.627,21.96,15.669,21.96,15.711z"/>
<linearGradient id="SVGID_4_" gradientUnits="userSpaceOnUse" x1="27.3712" y1="-1064.4166" x2="26.6606" y2="-1065.5869" gradientTransform="matrix(1 0 0 -1 -0.275 -1045.9501)">
	<stop  offset="0" style="stop-color:#27343C"/>
	<stop  offset="1" style="stop-color:#00111E;stop-opacity:0"/>
</linearGradient>
<path fill="url(#SVGID_4_)" d="M21.96,15.711c0,0,0.544,0.961,1.17,1.63c0.878,0.961,2.048,1.63,2.048,1.63l6.145,2.466
	c0.334,0.167,0.586,0.084,0.836-0.084l-10.074-5.685C22.044,15.627,21.96,15.669,21.96,15.711z"/>
<path fill="#A4AAAE" fill-opacity="0.6" d="M32.117,20.978c0-0.042-0.042-0.084-0.084-0.167l-8.611-6.312l-1.17,0.752
	c0,0,0.084,0.042,0.126,0c0.126-0.042,0.376-0.084,0.627,0c0.209,0.084,9.112,5.768,9.112,5.768S32.117,21.019,32.117,20.978z"/>
<path fill="#333E46" d="M31.825,20.601l-8.026-6.354l0,0l-0.376,0.251l8.611,6.354C31.992,20.769,31.909,20.685,31.825,20.601z"/>
<path fill="#565F64" d="M22.085,15.084c-0.042,0.042-0.042,0.042-0.042,0.042s0,0.084,0.084,0.042
	c0.042-0.042,1.254-0.669,1.672-0.92L22.337,4.215c-0.042-0.376-0.209-0.544-0.502-0.669l0.167,11.621L22.085,15.084z"/>
<path fill="#A4AAAE" fill-opacity="0.6" d="M21.375,4.215v0.544l-0.92,9.238c0,0.126,0.042,0.251,0.167,0.334l0.544,0.418
	l0.376-10.2l0.042-0.794C21.458,3.839,21.417,4.007,21.375,4.215z"/>
<path fill="#A4AAAE" fill-opacity="0.6" d="M20.873,14.916l-0.502-0.418l-8.485,6.145c0,0-0.251,0.167-0.292,0.334l0,0l0,0l0,0
	l0.292-0.167l0,0l8.904-5.601C20.957,15.126,20.999,15.042,20.873,14.916z"/>
<path fill="#565F64" d="M21.751,15.711c0-0.042-0.042-0.084-0.084-0.042l-10.116,5.727c0.251,0.167,0.502,0.209,0.836,0.084
	l9.447-3.804L21.751,15.711z"/>
<linearGradient id="SVGID_5_" gradientUnits="userSpaceOnUse" x1="25.3202" y1="-1060.1191" x2="24.1497" y2="-1058.2382" gradientTransform="matrix(1 0 0 -1 -0.275 -1045.9501)">
	<stop  offset="0.1" style="stop-color:#02131F"/>
	<stop  offset="0.9" style="stop-color:#02131F;stop-opacity:0"/>
</linearGradient>
<path fill="url(#SVGID_5_)" d="M22.044,15.126l0.042-0.042C22.044,15.126,22.044,15.126,22.044,15.126L22.044,15.126
	c0,0,0,0.042,0.042,0.042h0.042c0.042-0.042,1.254-0.669,1.672-0.92l-0.167-1.212l0,0l-1.296-8.82c0-0.167-0.042-0.292-0.126-0.376
	c0,0,0.627,8.444,0.627,9.364C22.837,14.415,22.044,15.126,22.044,15.126z"/>
<linearGradient id="SVGID_6_" gradientUnits="userSpaceOnUse" x1="22.1437" y1="-1063.1393" x2="20.388" y2="-1063.6409" gradientTransform="matrix(1 0 0 -1 -0.275 -1045.9501)">
	<stop  offset="0.2" style="stop-color:#02131F"/>
	<stop  offset="0.9" style="stop-color:#02131F;stop-opacity:0"/>
</linearGradient>
<path fill="url(#SVGID_6_)" fill-opacity="0.8" d="M21.751,15.711c0-0.042-0.042-0.084-0.084-0.042l-10.116,5.727
	c0.251,0.167,0.502,0.209,0.836,0.084l9.447-3.804L21.751,15.711z"/>
<linearGradient id="SVGID_7_" gradientUnits="userSpaceOnUse" x1="17.4651" y1="-1065.4664" x2="17.2143" y2="-1064.8395" gradientTransform="matrix(1 0 0 -1 -0.275 -1045.9501)">
	<stop  offset="0" style="stop-color:#02131F"/>
	<stop  offset="0.1" style="stop-color:#02131F"/>
	<stop  offset="1" style="stop-color:#02131F;stop-opacity:0"/>
</linearGradient>
<path opacity="0.8" fill="url(#SVGID_7_)" enable-background="new    " d="M12.387,21.438l9.447-3.804l-0.084-1.839
	c-0.167,0.502-0.46,1.045-1.254,1.463l0,0c-0.586,0.334-6.187,3.093-8.193,4.055c-0.126,0.084-0.292,0.126-0.376,0.167
	C12.095,21.563,12.22,21.521,12.387,21.438z"/>
<linearGradient id="SVGID_8_" gradientUnits="userSpaceOnUse" x1="23.6568" y1="-1055.146" x2="22.2355" y2="-1055.3131" gradientTransform="matrix(1 0 0 -1 -0.275 -1045.9501)">
	<stop  offset="0.3" style="stop-color:#02131F"/>
	<stop  offset="0.3" style="stop-color:#02131F"/>
	<stop  offset="0.8" style="stop-color:#02131F;stop-opacity:0"/>
</linearGradient>
<path fill="url(#SVGID_8_)" d="M22.085,15.084c-0.042,0.042-0.042,0.042-0.042,0.042s0,0.084,0.084,0.042
	c0.042-0.042,1.254-0.669,1.672-0.92L22.337,4.215c-0.042-0.376-0.209-0.544-0.502-0.669l0.167,11.621L22.085,15.084z"/>
<linearGradient id="SVGID_9_" gradientUnits="userSpaceOnUse" x1="23.701" y1="-1055.1221" x2="22.7396" y2="-1055.2474" gradientTransform="matrix(1 0 0 -1 -0.275 -1045.9501)">
	<stop  offset="0.4" style="stop-color:#27343C"/>
	<stop  offset="1" style="stop-color:#3B474E;stop-opacity:0"/>
</linearGradient>
<path fill="url(#SVGID_9_)" d="M22.085,15.084c-0.042,0.042-0.042,0.042-0.042,0.042s0,0.084,0.084,0.042
	c0.042-0.042,1.254-0.669,1.672-0.92L22.337,4.215c-0.042-0.376-0.209-0.544-0.502-0.669l0.167,11.621L22.085,15.084z"/>
<linearGradient id="SVGID_10_" gradientUnits="userSpaceOnUse" x1="8.624" y1="-1061.6746" x2="20.2865" y2="-1068.4044" gradientTransform="matrix(1 0 0 -1 -0.275 -1045.9501)">
	<stop  offset="0" style="stop-color:#24303A;stop-opacity:0"/>
	<stop  offset="0" style="stop-color:#25323B;stop-opacity:0"/>
	<stop  offset="0.1" style="stop-color:#27343C"/>
</linearGradient>
<path fill="url(#SVGID_10_)" d="M10.632,20.56c-0.292-0.669-1.965-3.929-0.126-10.2H9.795c-0.376,1.254-0.669,2.006-0.836,3.135
	c0,0-0.084,0.418-0.126,0.878c-0.042,0.46-0.042,0.711-0.042,1.003c0,2.508,0.627,3.971,0.627,3.971
	c0.669,2.09,1.839,3.971,3.427,5.393c1.38,1.212,3.511,2.132,5.267,2.466C17.821,27.164,12.805,25.032,10.632,20.56z"/>
<linearGradient id="SVGID_11_" gradientUnits="userSpaceOnUse" x1="22.1305" y1="-1063.5837" x2="22.1305" y2="-1061.5773" gradientTransform="matrix(1 0 0 -1 -0.275 -1045.9501)">
	<stop  offset="0.3" style="stop-color:#A5ABAF"/>
	<stop  offset="1" style="stop-color:#A5ABAF;stop-opacity:0"/>
</linearGradient>
<path fill="url(#SVGID_11_)" d="M22.044,15.627h-0.377l0,0c0.042,0,0.084,0,0.084,0.042l0.084,1.923l0,0h0.042l0.084-1.923
	C21.96,15.627,22.001,15.586,22.044,15.627L22.044,15.627z"/>
<linearGradient id="SVGID_12_" gradientUnits="userSpaceOnUse" x1="28.695" y1="-1048.9111" x2="28.695" y2="-1074.4111" gradientTransform="matrix(1 0 0 -1 -0.275 -1045.9501)">
	<stop  offset="0" style="stop-color:#DEE0DD"/>
	<stop  offset="0" style="stop-color:#C5C9C7"/>
	<stop  offset="0" style="stop-color:#9EA4A5"/>
	<stop  offset="0" style="stop-color:#82898C"/>
	<stop  offset="0" style="stop-color:#71797D"/>
	<stop  offset="0" style="stop-color:#6B7378"/>
	<stop  offset="0.2" style="stop-color:#333F47"/>
	<stop  offset="0.5" style="stop-color:#27343C"/>
	<stop  offset="0.8" style="stop-color:#333F47"/>
	<stop  offset="1" style="stop-color:#434D54"/>
</linearGradient>
<path fill="url(#SVGID_12_)" d="M26.057,2.961c4.389,1.672,8.528,6.271,8.528,12.081c0,7.023-5.601,12.75-12.707,12.75v0.669
	c7.106,0,13.084-5.853,13.084-13.084C34.96,9.608,31.282,4.759,26.057,2.961z"/>
<linearGradient id="SVGID_13_" gradientUnits="userSpaceOnUse" x1="22.1513" y1="-1048.243" x2="22.2769" y2="-1048.243" gradientTransform="matrix(1 0 0 -1 -0.275 -1045.9501)">
	<stop  offset="0" style="stop-color:#DEE0DD"/>
	<stop  offset="0" style="stop-color:#C5C9C7"/>
	<stop  offset="0" style="stop-color:#9EA4A5"/>
	<stop  offset="0" style="stop-color:#82898C"/>
	<stop  offset="0" style="stop-color:#71797D"/>
	<stop  offset="0" style="stop-color:#6B7378"/>
	<stop  offset="0.2" style="stop-color:#333F47"/>
	<stop  offset="0.5" style="stop-color:#27343C"/>
	<stop  offset="0.8" style="stop-color:#333F47"/>
	<stop  offset="1" style="stop-color:#434D54"/>
</linearGradient>
<path fill="url(#SVGID_13_)" d="M22.001,2.293c-0.042,0-0.084,0-0.126,0C21.918,2.293,21.96,2.293,22.001,2.293L22.001,2.293z"/>
<linearGradient id="SVGID_14_" gradientUnits="userSpaceOnUse" x1="32.7211" y1="-1051.3322" x2="27.078" y2="-1059.6088" gradientTransform="matrix(1 0 0 -1 -0.275 -1045.9501)">
	<stop  offset="0.7" style="stop-color:#27343C"/>
	<stop  offset="0.7" style="stop-color:#2B373F"/>
	<stop  offset="0.7" style="stop-color:#36424A"/>
	<stop  offset="0.7" style="stop-color:#49545B"/>
	<stop  offset="0.8" style="stop-color:#646D73;stop-opacity:0"/>
	<stop  offset="0.8" style="stop-color:#868D92;stop-opacity:0"/>
	<stop  offset="0.8" style="stop-color:#B0B5B8;stop-opacity:0"/>
	<stop  offset="0.8" style="stop-color:#E1E3E4;stop-opacity:0"/>
	<stop  offset="0.8" style="stop-color:#FFFFFF;stop-opacity:0"/>
</linearGradient>
<path fill="url(#SVGID_14_)" d="M33.079,10.443c-2.926-6.73-9.531-7.106-9.907-7.148c0,0,0,0-0.042,0l0,0
	c5.058,0.92,8.277,4.222,9.405,7.691v0.042c0.502,1.338,0.752,2.759,0.794,4.305c0.042,1.463-0.292,3.093-0.92,4.598
	c-0.042,0.209-0.084,0.46-0.126,0.46h0.669C34.96,16.63,34.083,12.827,33.079,10.443z"/>
<path fill="#FBFBFB" d="M9.42,15.419c0-6.855,5.559-12.499,12.457-12.499l0,0c6.897,0,12.457,5.601,12.457,12.499l0,0
	c0,6.855-5.559,12.415-12.457,12.415l0,0C14.979,27.833,9.42,22.273,9.42,15.419L9.42,15.419z M13.307,6.807
	c-2.215,2.215-3.595,5.267-3.595,8.611l0,0c0,3.344,1.38,6.395,3.553,8.569l0,0c2.215,2.174,5.267,3.553,8.611,3.553l0,0
	c3.344,0,6.395-1.338,8.569-3.553l0,0c2.215-2.174,3.553-5.225,3.553-8.569l0,0c0-3.344-1.38-6.395-3.553-8.611l0,0
	c-2.174-2.215-5.225-3.595-8.569-3.595l0,0C18.532,3.213,15.48,4.592,13.307,6.807L13.307,6.807z"/>
<path fill="#333F47" d="M11.802,20.727L11.802,20.727l8.528-6.145c0.46,0.251,1.212,0.586,1.295,0.586
	c0.084,0.042,0.084-0.042,0.084-0.042l-1.045-0.878c-0.126-0.084-0.167-0.209-0.167-0.334L21.501,3.84
	c-0.042,0.042-0.042,0.126-0.084,0.167c-0.042,0.084-0.042,0.126-0.042,0.209L19.912,14.29l-8.026,6.312
	C11.844,20.643,11.802,20.685,11.802,20.727z"/>
<g>
	<rect x="118.494" y="16.071" fill="#FFFFFF" width="4.412" height="1.018"/>
	<path fill="#FFFFFF" d="M45.129,9.874l-0.393,10.25v0.178c0,0.868,0.255,1.045,1.636,1.146v0.472
		c-1.007-0.079-1.401-0.098-1.955-0.098s-0.948,0.02-1.973,0.098v-0.472c1.38-0.1,1.577-0.259,1.618-1.323l0.415-9.694V10.31
		c0-0.905-0.276-1.104-1.639-1.182V8.632c0.768,0.059,1.066,0.08,1.618,0.08c0.732,0,1.125-0.021,1.877-0.1l3.67,9.993l3.734-9.993
		c0.887,0.08,1.302,0.1,1.893,0.1c0.494,0,0.81-0.021,1.56-0.08v0.495c-1.344,0.077-1.639,0.276-1.639,1.163v0.14l0.217,9.694
		c0.02,1.064,0.196,1.223,1.62,1.323v0.472c-1.246-0.117-1.718-0.158-2.469-0.158s-1.225,0.04-2.469,0.158v-0.472
		c1.344-0.08,1.64-0.297,1.64-1.223v-0.1L53.913,9.896l-3.257,8.807l-0.236,0.651l-0.276,0.729l-0.257,0.752l-0.217,0.65h-0.297
		l-0.215-0.632l-0.278-0.77l-0.276-0.769l-0.239-0.69L45.129,9.874z"/>
	<path fill="#FFFFFF" d="M62.521,21.426c-1.795,0-2.586-1.382-2.607-4.462h5.885c-0.04-3.041-1.283-4.66-3.612-4.66
		c-2.369,0-3.851,1.916-3.851,4.956s1.482,4.819,4.028,4.819c1.934,0,3.196-1.205,3.456-3.239h-0.791
		C64.791,20.52,63.923,21.426,62.521,21.426 M59.956,16.255c0.198-2.272,0.945-3.435,2.21-3.435c1.284,0,1.934,1.104,2.055,3.435
		H59.956z"/>
	<path fill="#FFFFFF" d="M66.974,13.035v-0.356c1.126-0.098,1.797-0.216,2.605-0.452c0.1,0.729,0.142,1.045,0.179,1.635v0.219
		c0.436-1.125,1.284-1.778,2.311-1.778c0.985,0,1.718,0.653,1.718,1.598c0,0.574-0.336,0.948-0.828,0.948
		c-0.455,0-0.81-0.273-0.81-0.67c0-0.038,0.019-0.118,0.04-0.2l0.038-0.196v-0.177c0-0.275-0.236-0.472-0.593-0.472
		c-1.025,0-1.676,1.243-1.676,3.196v4.129c0,0.847,0.196,1.006,1.401,1.066v0.393c-1.086-0.099-1.5-0.117-2.189-0.117
		c-0.712,0-1.126,0.018-2.212,0.117v-0.393c1.205-0.06,1.421-0.219,1.421-1.066v-6.14v-0.316c-0.019-0.849-0.117-0.95-1.146-0.968
		L66.974,13.035L66.974,13.035z"/>
	<path fill="#FFFFFF" d="M81.339,12.127v3.259h-0.434c-0.357-1.717-1.087-2.547-2.291-2.547c-1.48,0-2.348,1.6-2.348,4.423
		c0,2.764,0.77,4.166,2.289,4.166c1.226,0,1.951-0.866,2.191-2.605h0.81c-0.255,2.112-1.382,3.259-3.159,3.259
		c-2.289,0-3.851-1.937-3.851-4.819c0-2.941,1.58-4.956,3.909-4.956c0.851,0,1.384,0.218,2.013,0.831l0.537-1.008L81.339,12.127
		L81.339,12.127z"/>
	<path fill="#FFFFFF" d="M87.147,21.426c-1.795,0-2.586-1.382-2.607-4.462h5.885c-0.04-3.041-1.286-4.66-3.613-4.66
		c-2.371,0-3.851,1.916-3.851,4.956s1.48,4.819,4.028,4.819c1.935,0,3.197-1.205,3.457-3.239h-0.791
		C89.418,20.52,88.55,21.426,87.147,21.426 M84.582,16.255c0.196-2.272,0.945-3.435,2.21-3.435c1.286,0,1.937,1.104,2.051,3.435
		H84.582z"/>
	<path fill="#FFFFFF" d="M99.604,19.866V8.468c-0.987,0.264-1.877,0.423-2.981,0.542v0.335c1.244,0,1.399,0.137,1.399,1.164v3.455
		c-0.729-1.184-1.3-1.538-2.367-1.538c-2.113,0-3.593,1.991-3.593,4.836c0,2.843,1.503,4.838,3.653,4.838
		c1.127,0,1.895-0.514,2.45-1.617c0.08,0.749,0.08,0.826,0.275,1.58c0.808-0.258,1.146-0.336,2.311-0.476l0.297-0.04v-0.334
		C99.721,21.17,99.604,21.072,99.604,19.866 M95.892,21.546c-1.421,0-2.17-1.48-2.17-4.303c0-2.863,0.691-4.265,2.113-4.265
		c1.461,0,2.21,1.499,2.21,4.403C98.043,20.124,97.315,21.546,95.892,21.546"/>
	<path fill="#FFFFFF" d="M105.983,21.426c-1.799,0-2.59-1.382-2.609-4.462h5.883c-0.04-3.041-1.284-4.66-3.615-4.66
		c-2.367,0-3.846,1.916-3.846,4.956s1.48,4.819,4.025,4.819c1.937,0,3.199-1.205,3.454-3.239h-0.789
		C108.249,20.52,107.381,21.426,105.983,21.426 M103.413,16.255c0.198-2.272,0.948-3.435,2.21-3.435
		c1.284,0,1.937,1.104,2.053,3.435H103.413z"/>
	<path fill="#FFFFFF" d="M110.935,22.098v-3.295l0.432-0.021c0.357,1.796,1.186,2.665,2.567,2.665c1.165,0,2.033-0.77,2.033-1.778
		c0-0.669-0.375-1.125-1.342-1.559l-0.754-0.335l-0.905-0.417c-1.442-0.671-1.895-1.223-1.895-2.367c0-1.56,1.223-2.628,2.964-2.628
		c0.768,0,1.342,0.178,2.011,0.633l0.336-0.81h0.355v3.062h-0.454c-0.175-1.579-0.828-2.332-2.073-2.332
		c-1.045,0-1.855,0.712-1.855,1.64c0,0.791,0.297,1.046,2.091,1.837l0.83,0.353c1.5,0.652,2.034,1.284,2.034,2.449
		c0,1.658-1.323,2.843-3.18,2.843c-0.908,0-1.617-0.234-2.369-0.826l-0.474,0.887L110.935,22.098L110.935,22.098L110.935,22.098z"/>
	<path fill="#FFFFFF" d="M132.24,11.91c0-1.027-0.438-1.936-1.186-2.507c-0.672-0.494-1.44-0.713-2.726-0.713h-5.192v0.495
		c1.422,0.077,1.617,0.237,1.617,1.302v9.577c0,1.066-0.156,1.205-1.617,1.321v0.475h4.997c1.459,0,2.249-0.179,3.078-0.692
		c0.988-0.63,1.639-1.835,1.639-3.078c0-1.066-0.453-2.036-1.223-2.63c-0.415-0.313-0.849-0.489-1.561-0.63
		C131.488,14.298,132.24,13.293,132.24,11.91 M126.412,9.306h1.68c1.659,0,2.387,0.807,2.387,2.643c0,0.909-0.217,1.561-0.651,2.074
		c-0.436,0.494-0.968,0.65-2.073,0.65h-1.344L126.412,9.306L126.412,9.306z M128.288,15.286c1.048,0,1.639,0.175,2.093,0.632
		c0.453,0.453,0.712,1.302,0.712,2.249c0,1.974-0.987,3.08-2.745,3.08h-0.712c-1.048,0-1.226-0.158-1.226-1.025v-4.938
		C126.411,15.286,128.288,15.286,128.288,15.286z"/>
	<path fill="#FFFFFF" d="M138.64,21.426c-1.797,0-2.588-1.382-2.609-4.462h5.885c-0.04-3.041-1.283-4.66-3.613-4.66
		c-2.371,0-3.851,1.916-3.851,4.956s1.48,4.819,4.028,4.819c1.935,0,3.197-1.205,3.454-3.239h-0.789
		C140.912,20.52,140.042,21.426,138.64,21.426 M136.073,16.255c0.196-2.272,0.948-3.435,2.212-3.435
		c1.282,0,1.935,1.104,2.051,3.435H136.073z"/>
	<path fill="#FFFFFF" d="M142.962,13.114V12.78c1.146-0.157,1.815-0.315,2.607-0.594c0.096,0.456,0.156,0.968,0.196,1.717
		c0.712-1.064,1.519-1.538,2.667-1.538c1.185,0,2.21,0.613,2.605,1.579c0.198,0.472,0.296,1.029,0.296,1.777v4.739
		c0,0.847,0.198,1.006,1.403,1.066v0.393c-1.048-0.099-1.444-0.117-2.152-0.117c-0.732,0-1.125,0.018-2.152,0.117v-0.393
		c1.064-0.04,1.321-0.238,1.321-1.027V15.66c0-1.717-0.514-2.407-1.776-2.407c-1.341,0-2.051,0.849-2.051,2.468V20.5
		c0,0.789,0.255,0.986,1.281,1.027v0.393c-1.027-0.098-1.421-0.117-2.133-0.117c-0.691,0-1.104,0.018-2.133,0.117v-0.393
		c1.206-0.06,1.403-0.219,1.403-1.066v-6.102v-0.295c-0.021-0.81-0.138-0.928-1.125-0.928
		C143.16,13.135,143.06,13.114,142.962,13.114"/>
	<path fill="#FFFFFF" d="M153.503,21.862l5.349-8.808h-2.429c-1.282,0-1.599,0.28-2.311,2.056h-0.392l0.453-2.567h6.793
		l-5.372,8.805h2.311c1.342,0,1.895-0.531,2.488-2.329h0.415l-0.514,2.843H153.503L153.503,21.862z"/>
</g>
</svg>
